<svg width="114" height="16" viewBox="0 0 114 16" fill="none" xmlns="http://www.w3.org/2000/svg">
<g clip-path="url(#clip0_193_57)">
<path d="M12.5625 0.193359H16.2385V11.2305H21.955V14.2003H12.5625V0.193359Z" fill="white"/>
<path d="M24.5312 0.193359H34.5336V3.16317H28.2072V5.70664H34.0201V8.67645H28.2072V11.2305H34.5045V14.2003H24.5312V0.193359Z" fill="white"/>
<path d="M46.3161 4.23663C46.1128 3.90798 45.8304 3.65455 45.47 3.47768C45.1084 3.30082 44.686 3.21106 44.2029 3.21106C43.5575 3.21106 43.0097 3.36945 42.5583 3.68491C42.1069 4.00037 41.7598 4.45706 41.5182 5.05366C41.2767 5.65026 41.1552 6.36434 41.1552 7.19588C41.1552 8.02743 41.2767 8.79562 41.5182 9.38166C41.7598 9.96902 42.1029 10.4152 42.5491 10.7214C42.9939 11.0276 43.5324 11.1807 44.1646 11.1807C44.6358 11.1807 45.0477 11.0989 45.4027 10.9339C45.7578 10.7689 46.0429 10.5379 46.2593 10.237C46.4758 9.93734 46.6184 9.58097 46.6896 9.16783L50.4329 9.20611C50.355 10.0575 50.0633 10.8784 49.5578 11.6678C49.051 12.4584 48.3343 13.1091 47.405 13.6212C46.4758 14.1334 45.3737 14.3907 44.0973 14.3907C42.821 14.3907 41.6449 14.1096 40.6299 13.5486C39.6149 12.9877 38.8177 12.164 38.2409 11.0778C37.6641 9.99146 37.375 8.69663 37.375 7.19456C37.375 5.6925 37.6707 4.38843 38.2607 3.30082C38.8507 2.21453 39.6519 1.39222 40.6642 0.833896C41.6766 0.275572 42.821 -0.00292969 44.0986 -0.00292969C45.2654 -0.00292969 46.3069 0.208257 47.2229 0.630629C48.1389 1.053 48.8767 1.67072 49.4377 2.48247C49.9987 3.29554 50.3313 4.26171 50.4342 5.38496H46.691C46.6461 4.94675 46.522 4.56265 46.3187 4.234L46.3161 4.23663Z" fill="white"/>
<path d="M0 5.6185H3.16515V3.01167H10.5422V0.196289H0V5.6185Z" fill="white"/>
<path d="M7.96304 6.4502H3.24567H2.76126H0V15.9998L3.24567 13.0564V9.1679H5.56344L7.96304 6.4502Z" fill="white"/>
<path d="M82.9237 11.0856C82.3337 12.1693 81.5246 12.9916 80.4964 13.5525C79.4682 14.1135 78.3119 14.3946 77.029 14.3946C75.746 14.3946 74.5832 14.1135 73.5616 13.5525C72.5399 12.9916 71.7335 12.1679 71.1435 11.0817C70.5535 9.99537 70.2578 8.70053 70.2578 7.19847C70.2578 5.69641 70.5535 4.39233 71.1435 3.30472C71.7335 2.21843 72.5399 1.39613 73.5616 0.837802C74.5832 0.279478 75.7394 0.000976562 77.029 0.000976562C78.3185 0.000976562 79.4682 0.279478 80.4964 0.837802C81.5246 1.39613 82.335 2.21843 82.9237 3.30472C83.5137 4.39101 83.8094 5.68849 83.8094 7.19847C83.8094 8.70845 83.5137 10.0033 82.9237 11.0869V11.0856ZM79.6833 5.02061C79.455 4.42797 79.1144 3.97788 78.663 3.67166C78.2116 3.36544 77.6665 3.21233 77.0277 3.21233C76.3888 3.21233 75.849 3.36544 75.4068 3.67166C74.9646 3.97788 74.6267 4.42797 74.3905 5.02061C74.1555 5.61457 74.038 6.33921 74.038 7.19715C74.038 8.05509 74.1555 8.77709 74.3905 9.36445C74.6254 9.95181 74.9646 10.4006 75.4068 10.7134C75.849 11.0262 76.3888 11.182 77.0277 11.182C77.6665 11.182 78.2103 11.0262 78.663 10.7134C79.1144 10.4006 79.455 9.95049 79.6833 9.36445C79.9117 8.77709 80.0265 8.05509 80.0265 7.19715C80.0265 6.33921 79.9117 5.61457 79.6833 5.02061Z" fill="white"/>
<path d="M86.6068 0.193359H92.5649C93.6037 0.193359 94.5118 0.383427 95.2931 0.763562C96.0732 1.1437 96.6777 1.69014 97.1067 2.4029C97.5357 3.11565 97.7495 3.95511 97.7495 4.92261C97.7495 5.89011 97.5317 6.73749 97.0962 7.42781C96.6606 8.11812 96.0455 8.64081 95.2483 8.99455C94.4524 9.3496 93.5152 9.52647 92.4382 9.52647H88.811V6.64378H91.7228C92.194 6.64378 92.59 6.58438 92.912 6.46427C93.2341 6.34548 93.4809 6.15937 93.6525 5.90859C93.8228 5.65648 93.9086 5.32783 93.9086 4.92129C93.9086 4.51476 93.8228 4.1861 93.6525 3.91552C93.4809 3.64494 93.2328 3.44827 92.9081 3.32552C92.582 3.20276 92.1874 3.14205 91.7228 3.14205H90.2814V14.199H86.6055V0.193359H86.6068ZM98.2154 14.199H94.2016L90.7962 7.78551H94.7229L98.2154 14.199Z" fill="white"/>
<path d="M103.279 0.193359L106.084 5.92971H106.191L108.996 0.193359H113.108L107.97 9.71126V14.199H104.314V9.71126L99.168 0.193359H103.279Z" fill="white"/>
<path d="M69.3251 0.196289H65.5938V3.92769H69.3251V0.196289Z" fill="white"/>
<path d="M64.6438 0.196289H64.628H60.8966H56.2148V3.81021H60.8966V12.2946V15.8478L64.628 12.2946V3.81021H64.6438V0.196289Z" fill="white"/>
</g>
<defs>
<clipPath id="clip0_193_57">
<rect width="113.107" height="16" fill="white"/>
</clipPath>
</defs>
</svg>
