<svg width="114" height="16" viewBox="0 0 114 16" fill="none" xmlns="http://www.w3.org/2000/svg">
<g clip-path="url(#clip0_193_200)">
<path d="M12.5615 0.193359H16.2375V11.2305H21.954V14.2003H12.5615V0.193359Z" fill="#1E1F1E"/>
<path d="M24.5303 0.193359H34.5326V3.16317H28.2062V5.70664H34.0191V8.67645H28.2062V11.2305H34.5035V14.2003H24.5303V0.193359Z" fill="#1E1F1E"/>
<path d="M46.3141 4.23663C46.1109 3.90798 45.8284 3.65455 45.4681 3.47768C45.1064 3.30082 44.6841 3.21106 44.201 3.21106C43.5555 3.21106 43.0078 3.36945 42.5564 3.68491C42.1049 4.00037 41.7578 4.45706 41.5163 5.05366C41.2747 5.65026 41.1533 6.36434 41.1533 7.19588C41.1533 8.02743 41.2747 8.79562 41.5163 9.38166C41.7578 9.96902 42.101 10.4152 42.5471 10.7214C42.9919 11.0276 43.5304 11.1807 44.1627 11.1807C44.6339 11.1807 45.0457 11.0989 45.4008 10.9339C45.7558 10.7689 46.0409 10.5379 46.2574 10.237C46.4739 9.93734 46.6164 9.58097 46.6877 9.16783L50.431 9.20611C50.3531 10.0575 50.0614 10.8784 49.5559 11.6678C49.049 12.4584 48.3323 13.1091 47.4031 13.6212C46.4739 14.1334 45.3717 14.3907 44.0954 14.3907C42.819 14.3907 41.643 14.1096 40.628 13.5486C39.6129 12.9877 38.8157 12.164 38.2389 11.0778C37.6621 9.99146 37.373 8.69663 37.373 7.19456C37.373 5.6925 37.6687 4.38843 38.2587 3.30082C38.8487 2.21453 39.6499 1.39222 40.6623 0.833896C41.6746 0.275572 42.819 -0.00292969 44.0967 -0.00292969C45.2635 -0.00292969 46.3049 0.208257 47.2209 0.630629C48.1369 1.053 48.8748 1.67072 49.4357 2.48247C49.9967 3.29554 50.3293 4.26171 50.4323 5.38496H46.689C46.6441 4.94675 46.5201 4.56265 46.3168 4.234L46.3141 4.23663Z" fill="#1E1F1E"/>
<path d="M0 5.6185H3.16515V3.01167H10.5422V0.196289H0V5.6185Z" fill="#1E1F1E"/>
<path d="M7.96304 6.4502H3.24567H2.76126H0V15.9998L3.24567 13.0564V9.1679H5.56344L7.96304 6.4502Z" fill="#1E1F1E"/>
<path d="M82.9247 11.0856C82.3347 12.1693 81.5256 12.9916 80.4974 13.5525C79.4692 14.1135 78.3129 14.3946 77.0299 14.3946C75.747 14.3946 74.5842 14.1135 73.5625 13.5525C72.5409 12.9916 71.7345 12.1679 71.1445 11.0817C70.5545 9.99537 70.2588 8.70053 70.2588 7.19847C70.2588 5.69641 70.5545 4.39233 71.1445 3.30472C71.7345 2.21843 72.5409 1.39613 73.5625 0.837802C74.5842 0.279478 75.7404 0.000976562 77.0299 0.000976562C78.3195 0.000976562 79.4692 0.279478 80.4974 0.837802C81.5256 1.39613 82.336 2.21843 82.9247 3.30472C83.5147 4.39101 83.8103 5.68849 83.8103 7.19847C83.8103 8.70845 83.5147 10.0033 82.9247 11.0869V11.0856ZM79.6843 5.02061C79.456 4.42797 79.1154 3.97788 78.664 3.67166C78.2126 3.36544 77.6675 3.21233 77.0286 3.21233C76.3898 3.21233 75.8499 3.36544 75.4078 3.67166C74.9656 3.97788 74.6277 4.42797 74.3914 5.02061C74.1565 5.61457 74.039 6.33921 74.039 7.19715C74.039 8.05509 74.1565 8.77709 74.3914 9.36445C74.6264 9.95181 74.9656 10.4006 75.4078 10.7134C75.8499 11.0262 76.3898 11.182 77.0286 11.182C77.6675 11.182 78.2113 11.0262 78.664 10.7134C79.1154 10.4006 79.456 9.95049 79.6843 9.36445C79.9126 8.77709 80.0275 8.05509 80.0275 7.19715C80.0275 6.33921 79.9126 5.61457 79.6843 5.02061Z" fill="#1E1F1E"/>
<path d="M86.6087 0.193359H92.5668C93.6056 0.193359 94.5137 0.383427 95.2951 0.763562C96.0752 1.1437 96.6797 1.69014 97.1087 2.4029C97.5376 3.11565 97.7515 3.95511 97.7515 4.92261C97.7515 5.89011 97.5337 6.73749 97.0981 7.42781C96.6625 8.11812 96.0475 8.64081 95.2502 8.99455C94.4543 9.3496 93.5172 9.52647 92.4401 9.52647H88.813V6.64378H91.7247C92.1959 6.64378 92.5919 6.58438 92.914 6.46427C93.236 6.34548 93.4829 6.15937 93.6544 5.90859C93.8247 5.65648 93.9105 5.32783 93.9105 4.92129C93.9105 4.51476 93.8247 4.1861 93.6544 3.91552C93.4829 3.64494 93.2347 3.44827 92.91 3.32552C92.584 3.20276 92.1893 3.14205 91.7247 3.14205H90.2834V14.199H86.6074V0.193359H86.6087ZM98.2174 14.199H94.2035L90.7981 7.78551H94.7249L98.2174 14.199Z" fill="#1E1F1E"/>
<path d="M103.28 0.193359L106.085 5.92971H106.192L108.997 0.193359H113.109L107.971 9.71126V14.199H104.315V9.71126L99.1689 0.193359H103.28Z" fill="#1E1F1E"/>
<path d="M69.3251 0.196289H65.5938V3.92769H69.3251V0.196289Z" fill="#1E1F1E"/>
<path d="M64.6438 0.196289H64.628H60.8966H56.2148V3.81021H60.8966V12.2946V15.8478L64.628 12.2946V3.81021H64.6438V0.196289Z" fill="#1E1F1E"/>
</g>
<defs>
<clipPath id="clip0_193_200">
<rect width="113.107" height="16" fill="white"/>
</clipPath>
</defs>
</svg>
